<mxfile host="65bd71144e" modified="2020-10-29T03:12:57.138Z" agent="5.0 (Macintosh; Intel Mac OS X 10_15_7) AppleWebKit/537.36 (KHTML, like Gecko) Code/1.50.1 Chrome/83.0.4103.122 Electron/9.2.1 Safari/537.36" etag="5RRAP_jlGNOsbhzVM7ig" version="13.6.5">
    <diagram id="Y4EUSQoWKBMnZyC47Acp" name="Page-1">
        <mxGraphModel dx="1281" dy="640" grid="1" gridSize="10" guides="1" tooltips="1" connect="1" arrows="1" fold="1" page="1" pageScale="1" pageWidth="850" pageHeight="1100" math="0" shadow="0">
            <root>
                <mxCell id="0"/>
                <mxCell id="1" parent="0"/>
                <mxCell id="QSF2PykfFOCDPN8S-CMc-1" value="React App" style="whiteSpace=wrap;html=1;aspect=fixed;" parent="1" vertex="1">
                    <mxGeometry x="140" y="150" width="180" height="180" as="geometry"/>
                </mxCell>
                <mxCell id="QSF2PykfFOCDPN8S-CMc-2" value="&lt;b&gt;Google Firebase:&lt;/b&gt;&lt;br&gt;&lt;br&gt;&lt;div style=&quot;text-align: left&quot;&gt;&lt;span&gt;* Google Auth - Authentication&amp;nbsp;&lt;/span&gt;&lt;/div&gt;&lt;div style=&quot;text-align: left&quot;&gt;&lt;span&gt;* Firestore - Database&lt;/span&gt;&lt;/div&gt;&lt;div style=&quot;text-align: left&quot;&gt;&lt;span&gt;* Firebase hosting&lt;/span&gt;&lt;/div&gt;" style="whiteSpace=wrap;html=1;aspect=fixed;" parent="1" vertex="1">
                    <mxGeometry x="450" y="150" width="180" height="180" as="geometry"/>
                </mxCell>
                <mxCell id="QSF2PykfFOCDPN8S-CMc-3" value="" style="shape=flexArrow;endArrow=classic;startArrow=classic;html=1;width=10;startSize=4.67;entryX=0;entryY=0.5;entryDx=0;entryDy=0;exitX=1;exitY=0.5;exitDx=0;exitDy=0;startWidth=10;endWidth=10;endSize=6.67;" parent="1" source="QSF2PykfFOCDPN8S-CMc-1" target="QSF2PykfFOCDPN8S-CMc-2" edge="1">
                    <mxGeometry width="50" height="50" relative="1" as="geometry">
                        <mxPoint x="330" y="199.5" as="sourcePoint"/>
                        <mxPoint x="410" y="199.5" as="targetPoint"/>
                    </mxGeometry>
                </mxCell>
                <mxCell id="QSF2PykfFOCDPN8S-CMc-4" value="&lt;font style=&quot;font-size: 24px&quot;&gt;Architecture Block Diagram&lt;/font&gt;" style="text;html=1;strokeColor=none;fillColor=none;align=center;verticalAlign=middle;whiteSpace=wrap;rounded=0;" parent="1" vertex="1">
                    <mxGeometry x="265" y="70" width="320" height="20" as="geometry"/>
                </mxCell>
                <object label="User" placeholders="1" id="QSF2PykfFOCDPN8S-CMc-6">
                    <mxCell style="swimlane;fontStyle=1;childLayout=stackLayout;horizontal=1;startSize=26;fillColor=none;horizontalStack=0;resizeParent=1;resizeParentMax=0;resizeLast=0;collapsible=1;marginBottom=0;arcSize=15;fontSize=14;" parent="1" vertex="1" collapsed="1">
                        <mxGeometry x="120" y="480" width="120" height="26" as="geometry">
                            <mxRectangle x="120" y="480" width="120" height="130" as="alternateBounds"/>
                        </mxGeometry>
                    </mxCell>
                </object>
                <mxCell id="QSF2PykfFOCDPN8S-CMc-7" value="id: string" style="text;strokeColor=none;fillColor=none;align=left;verticalAlign=top;spacingLeft=4;spacingRight=4;overflow=hidden;rotatable=0;points=[[0,0.5],[1,0.5]];portConstraint=eastwest;arcSize=15;fontSize=14;" parent="QSF2PykfFOCDPN8S-CMc-6" vertex="1">
                    <mxGeometry y="26" width="120" height="26" as="geometry"/>
                </mxCell>
                <mxCell id="QSF2PykfFOCDPN8S-CMc-8" value="name: string" style="text;strokeColor=none;fillColor=none;align=left;verticalAlign=top;spacingLeft=4;spacingRight=4;overflow=hidden;rotatable=0;points=[[0,0.5],[1,0.5]];portConstraint=eastwest;arcSize=15;fontSize=14;" parent="QSF2PykfFOCDPN8S-CMc-6" vertex="1">
                    <mxGeometry y="52" width="120" height="26" as="geometry"/>
                </mxCell>
                <object label="imageURL: string" id="QSF2PykfFOCDPN8S-CMc-10">
                    <mxCell style="text;strokeColor=none;fillColor=none;align=left;verticalAlign=top;spacingLeft=4;spacingRight=4;overflow=hidden;rotatable=0;points=[[0,0.5],[1,0.5]];portConstraint=eastwest;arcSize=15;fontSize=14;" parent="QSF2PykfFOCDPN8S-CMc-6" vertex="1">
                        <mxGeometry y="78" width="120" height="26" as="geometry"/>
                    </mxCell>
                </object>
                <object label="created_at: string" id="QSF2PykfFOCDPN8S-CMc-9">
                    <mxCell style="text;strokeColor=none;fillColor=none;align=left;verticalAlign=top;spacingLeft=4;spacingRight=4;overflow=hidden;rotatable=0;points=[[0,0.5],[1,0.5]];portConstraint=eastwest;arcSize=15;fontSize=14;" parent="QSF2PykfFOCDPN8S-CMc-6" vertex="1">
                        <mxGeometry y="104" width="120" height="26" as="geometry"/>
                    </mxCell>
                </object>
                <object label="Subreddits" placeholders="1" id="QSF2PykfFOCDPN8S-CMc-16">
                    <mxCell style="swimlane;fontStyle=1;childLayout=stackLayout;horizontal=1;startSize=26;fillColor=none;horizontalStack=0;resizeParent=1;resizeParentMax=0;resizeLast=0;collapsible=1;marginBottom=0;arcSize=15;fontSize=14;" parent="1" vertex="1" collapsed="1">
                        <mxGeometry x="365" y="480" width="120" height="26" as="geometry">
                            <mxRectangle x="365" y="480" width="120" height="130" as="alternateBounds"/>
                        </mxGeometry>
                    </mxCell>
                </object>
                <mxCell id="QSF2PykfFOCDPN8S-CMc-17" value="id: string" style="text;strokeColor=none;fillColor=none;align=left;verticalAlign=top;spacingLeft=4;spacingRight=4;overflow=hidden;rotatable=0;points=[[0,0.5],[1,0.5]];portConstraint=eastwest;arcSize=15;fontSize=14;" parent="QSF2PykfFOCDPN8S-CMc-16" vertex="1">
                    <mxGeometry y="26" width="120" height="26" as="geometry"/>
                </mxCell>
                <mxCell id="QSF2PykfFOCDPN8S-CMc-18" value="name: string" style="text;strokeColor=none;fillColor=none;align=left;verticalAlign=top;spacingLeft=4;spacingRight=4;overflow=hidden;rotatable=0;points=[[0,0.5],[1,0.5]];portConstraint=eastwest;arcSize=15;fontSize=14;" parent="QSF2PykfFOCDPN8S-CMc-16" vertex="1">
                    <mxGeometry y="52" width="120" height="26" as="geometry"/>
                </mxCell>
                <object label="description: string" id="QSF2PykfFOCDPN8S-CMc-19">
                    <mxCell style="text;strokeColor=none;fillColor=none;align=left;verticalAlign=top;spacingLeft=4;spacingRight=4;overflow=hidden;rotatable=0;points=[[0,0.5],[1,0.5]];portConstraint=eastwest;arcSize=15;fontSize=14;" parent="QSF2PykfFOCDPN8S-CMc-16" vertex="1">
                        <mxGeometry y="78" width="120" height="26" as="geometry"/>
                    </mxCell>
                </object>
                <object label="created_at: string" id="QSF2PykfFOCDPN8S-CMc-20">
                    <mxCell style="text;strokeColor=none;fillColor=none;align=left;verticalAlign=top;spacingLeft=4;spacingRight=4;overflow=hidden;rotatable=0;points=[[0,0.5],[1,0.5]];portConstraint=eastwest;arcSize=15;fontSize=14;" parent="QSF2PykfFOCDPN8S-CMc-16" vertex="1">
                        <mxGeometry y="104" width="120" height="26" as="geometry"/>
                    </mxCell>
                </object>
                <object label="Posts" placeholders="1" id="QSF2PykfFOCDPN8S-CMc-21">
                    <mxCell style="swimlane;fontStyle=1;childLayout=stackLayout;horizontal=1;startSize=26;fillColor=none;horizontalStack=0;resizeParent=1;resizeParentMax=0;resizeLast=0;collapsible=1;marginBottom=0;arcSize=15;fontSize=14;" parent="1" vertex="1" collapsed="1">
                        <mxGeometry x="600" y="480" width="120" height="26" as="geometry">
                            <mxRectangle x="600" y="480" width="170" height="260" as="alternateBounds"/>
                        </mxGeometry>
                    </mxCell>
                </object>
                <mxCell id="QSF2PykfFOCDPN8S-CMc-22" value="id: string" style="text;strokeColor=none;fillColor=none;align=left;verticalAlign=top;spacingLeft=4;spacingRight=4;overflow=hidden;rotatable=0;points=[[0,0.5],[1,0.5]];portConstraint=eastwest;arcSize=15;fontSize=14;" parent="QSF2PykfFOCDPN8S-CMc-21" vertex="1">
                    <mxGeometry y="26" width="120" height="26" as="geometry"/>
                </mxCell>
                <mxCell id="QSF2PykfFOCDPN8S-CMc-23" value="title: string" style="text;strokeColor=none;fillColor=none;align=left;verticalAlign=top;spacingLeft=4;spacingRight=4;overflow=hidden;rotatable=0;points=[[0,0.5],[1,0.5]];portConstraint=eastwest;arcSize=15;fontSize=14;" parent="QSF2PykfFOCDPN8S-CMc-21" vertex="1">
                    <mxGeometry y="52" width="120" height="26" as="geometry"/>
                </mxCell>
                <object label="description: string" id="QSF2PykfFOCDPN8S-CMc-24">
                    <mxCell style="text;strokeColor=none;fillColor=none;align=left;verticalAlign=top;spacingLeft=4;spacingRight=4;overflow=hidden;rotatable=0;points=[[0,0.5],[1,0.5]];portConstraint=eastwest;arcSize=15;fontSize=14;" parent="QSF2PykfFOCDPN8S-CMc-21" vertex="1">
                        <mxGeometry y="78" width="120" height="26" as="geometry"/>
                    </mxCell>
                </object>
                <object label="imageURL: string" id="QSF2PykfFOCDPN8S-CMc-27">
                    <mxCell style="text;strokeColor=none;fillColor=none;align=left;verticalAlign=top;spacingLeft=4;spacingRight=4;overflow=hidden;rotatable=0;points=[[0,0.5],[1,0.5]];portConstraint=eastwest;arcSize=15;fontSize=14;" parent="QSF2PykfFOCDPN8S-CMc-21" vertex="1">
                        <mxGeometry y="104" width="120" height="26" as="geometry"/>
                    </mxCell>
                </object>
                <object label="url: string" id="QSF2PykfFOCDPN8S-CMc-28">
                    <mxCell style="text;strokeColor=none;fillColor=none;align=left;verticalAlign=top;spacingLeft=4;spacingRight=4;overflow=hidden;rotatable=0;points=[[0,0.5],[1,0.5]];portConstraint=eastwest;arcSize=15;fontSize=14;" parent="QSF2PykfFOCDPN8S-CMc-21" vertex="1">
                        <mxGeometry y="130" width="120" height="26" as="geometry"/>
                    </mxCell>
                </object>
                <object label="user_id: string" id="QSF2PykfFOCDPN8S-CMc-29">
                    <mxCell style="text;strokeColor=none;fillColor=none;align=left;verticalAlign=top;spacingLeft=4;spacingRight=4;overflow=hidden;rotatable=0;points=[[0,0.5],[1,0.5]];portConstraint=eastwest;arcSize=15;fontSize=14;" parent="QSF2PykfFOCDPN8S-CMc-21" vertex="1">
                        <mxGeometry y="156" width="120" height="26" as="geometry"/>
                    </mxCell>
                </object>
                <object label="subreddit_id: string" id="QSF2PykfFOCDPN8S-CMc-30">
                    <mxCell style="text;strokeColor=none;fillColor=none;align=left;verticalAlign=top;spacingLeft=4;spacingRight=4;overflow=hidden;rotatable=0;points=[[0,0.5],[1,0.5]];portConstraint=eastwest;arcSize=15;fontSize=14;" parent="QSF2PykfFOCDPN8S-CMc-21" vertex="1">
                        <mxGeometry y="182" width="120" height="26" as="geometry"/>
                    </mxCell>
                </object>
                <object label="created_at: string" id="QSF2PykfFOCDPN8S-CMc-31">
                    <mxCell style="text;strokeColor=none;fillColor=none;align=left;verticalAlign=top;spacingLeft=4;spacingRight=4;overflow=hidden;rotatable=0;points=[[0,0.5],[1,0.5]];portConstraint=eastwest;arcSize=15;fontSize=14;" parent="QSF2PykfFOCDPN8S-CMc-21" vertex="1">
                        <mxGeometry y="208" width="120" height="26" as="geometry"/>
                    </mxCell>
                </object>
                <object label="updated_at: string" id="QSF2PykfFOCDPN8S-CMc-32">
                    <mxCell style="text;strokeColor=none;fillColor=none;align=left;verticalAlign=top;spacingLeft=4;spacingRight=4;overflow=hidden;rotatable=0;points=[[0,0.5],[1,0.5]];portConstraint=eastwest;arcSize=15;fontSize=14;" parent="QSF2PykfFOCDPN8S-CMc-21" vertex="1">
                        <mxGeometry y="234" width="120" height="26" as="geometry"/>
                    </mxCell>
                </object>
                <object label="Post votes" placeholders="1" id="QSF2PykfFOCDPN8S-CMc-34">
                    <mxCell style="swimlane;fontStyle=1;childLayout=stackLayout;horizontal=1;startSize=26;fillColor=none;horizontalStack=0;resizeParent=1;resizeParentMax=0;resizeLast=0;collapsible=1;marginBottom=0;arcSize=15;fontSize=14;" parent="1" vertex="1" collapsed="1">
                        <mxGeometry x="120" y="760" width="120" height="26" as="geometry">
                            <mxRectangle x="120" y="760" width="120" height="208" as="alternateBounds"/>
                        </mxGeometry>
                    </mxCell>
                </object>
                <mxCell id="QSF2PykfFOCDPN8S-CMc-35" value="id: string" style="text;strokeColor=none;fillColor=none;align=left;verticalAlign=top;spacingLeft=4;spacingRight=4;overflow=hidden;rotatable=0;points=[[0,0.5],[1,0.5]];portConstraint=eastwest;arcSize=15;fontSize=14;" parent="QSF2PykfFOCDPN8S-CMc-34" vertex="1">
                    <mxGeometry y="26" width="120" height="26" as="geometry"/>
                </mxCell>
                <mxCell id="QSF2PykfFOCDPN8S-CMc-36" value="user_id: string" style="text;strokeColor=none;fillColor=none;align=left;verticalAlign=top;spacingLeft=4;spacingRight=4;overflow=hidden;rotatable=0;points=[[0,0.5],[1,0.5]];portConstraint=eastwest;arcSize=15;fontSize=14;" parent="QSF2PykfFOCDPN8S-CMc-34" vertex="1">
                    <mxGeometry y="52" width="120" height="26" as="geometry"/>
                </mxCell>
                <object label="post_id: string" id="QSF2PykfFOCDPN8S-CMc-37">
                    <mxCell style="text;strokeColor=none;fillColor=none;align=left;verticalAlign=top;spacingLeft=4;spacingRight=4;overflow=hidden;rotatable=0;points=[[0,0.5],[1,0.5]];portConstraint=eastwest;arcSize=15;fontSize=14;" parent="QSF2PykfFOCDPN8S-CMc-34" vertex="1">
                        <mxGeometry y="78" width="120" height="26" as="geometry"/>
                    </mxCell>
                </object>
                <object label="subreddit_id: string" id="QSF2PykfFOCDPN8S-CMc-39">
                    <mxCell style="text;strokeColor=none;fillColor=none;align=left;verticalAlign=top;spacingLeft=4;spacingRight=4;overflow=hidden;rotatable=0;points=[[0,0.5],[1,0.5]];portConstraint=eastwest;arcSize=15;fontSize=14;" parent="QSF2PykfFOCDPN8S-CMc-34" vertex="1">
                        <mxGeometry y="104" width="120" height="26" as="geometry"/>
                    </mxCell>
                </object>
                <object label="vote: number" id="QSF2PykfFOCDPN8S-CMc-40">
                    <mxCell style="text;strokeColor=none;fillColor=none;align=left;verticalAlign=top;spacingLeft=4;spacingRight=4;overflow=hidden;rotatable=0;points=[[0,0.5],[1,0.5]];portConstraint=eastwest;arcSize=15;fontSize=14;" parent="QSF2PykfFOCDPN8S-CMc-34" vertex="1">
                        <mxGeometry y="130" width="120" height="26" as="geometry"/>
                    </mxCell>
                </object>
                <object label="created_at: string" id="QSF2PykfFOCDPN8S-CMc-41">
                    <mxCell style="text;strokeColor=none;fillColor=none;align=left;verticalAlign=top;spacingLeft=4;spacingRight=4;overflow=hidden;rotatable=0;points=[[0,0.5],[1,0.5]];portConstraint=eastwest;arcSize=15;fontSize=14;" parent="QSF2PykfFOCDPN8S-CMc-34" vertex="1">
                        <mxGeometry y="156" width="120" height="26" as="geometry"/>
                    </mxCell>
                </object>
                <object label="updated_at: string" id="QSF2PykfFOCDPN8S-CMc-38">
                    <mxCell style="text;strokeColor=none;fillColor=none;align=left;verticalAlign=top;spacingLeft=4;spacingRight=4;overflow=hidden;rotatable=0;points=[[0,0.5],[1,0.5]];portConstraint=eastwest;arcSize=15;fontSize=14;" parent="QSF2PykfFOCDPN8S-CMc-34" vertex="1">
                        <mxGeometry y="182" width="120" height="26" as="geometry"/>
                    </mxCell>
                </object>
                <mxCell id="QSF2PykfFOCDPN8S-CMc-42" style="edgeStyle=orthogonalEdgeStyle;rounded=0;orthogonalLoop=1;jettySize=auto;html=1;exitX=1;exitY=0.5;exitDx=0;exitDy=0;entryX=0;entryY=0.5;entryDx=0;entryDy=0;fontSize=14;labelBorderColor=#000099;labelBackgroundColor=#000066;spacingTop=0;spacing=2;verticalAlign=middle;fontColor=#6666FF;fillColor=#d5e8d4;strokeColor=#82b366;strokeWidth=2;" parent="1" source="QSF2PykfFOCDPN8S-CMc-7" target="QSF2PykfFOCDPN8S-CMc-36" edge="1">
                    <mxGeometry relative="1" as="geometry">
                        <Array as="points">
                            <mxPoint x="260" y="519"/>
                            <mxPoint x="260" y="680"/>
                            <mxPoint x="100" y="680"/>
                            <mxPoint x="100" y="825"/>
                        </Array>
                    </mxGeometry>
                </mxCell>
                <mxCell id="QSF2PykfFOCDPN8S-CMc-43" style="edgeStyle=orthogonalEdgeStyle;rounded=0;orthogonalLoop=1;jettySize=auto;html=1;exitX=1;exitY=0.5;exitDx=0;exitDy=0;entryX=0;entryY=0.5;entryDx=0;entryDy=0;fontSize=14;labelBorderColor=#000099;labelBackgroundColor=#000066;spacingTop=0;spacing=2;verticalAlign=middle;fontColor=#6666FF;fillColor=#d5e8d4;strokeColor=#82b366;strokeWidth=2;" parent="1" source="QSF2PykfFOCDPN8S-CMc-7" target="QSF2PykfFOCDPN8S-CMc-29" edge="1">
                    <mxGeometry relative="1" as="geometry">
                        <mxPoint x="250" y="529" as="sourcePoint"/>
                        <mxPoint x="130" y="835" as="targetPoint"/>
                        <Array as="points">
                            <mxPoint x="260" y="519"/>
                            <mxPoint x="260" y="680"/>
                            <mxPoint x="560" y="680"/>
                            <mxPoint x="560" y="649"/>
                        </Array>
                    </mxGeometry>
                </mxCell>
                <mxCell id="QSF2PykfFOCDPN8S-CMc-44" style="edgeStyle=orthogonalEdgeStyle;rounded=0;orthogonalLoop=1;jettySize=auto;html=1;exitX=1;exitY=0.5;exitDx=0;exitDy=0;entryX=0;entryY=0.5;entryDx=0;entryDy=0;labelBackgroundColor=#000066;strokeWidth=2;fontSize=14;fontColor=#6666FF;fillColor=#fff2cc;strokeColor=#d6b656;" parent="1" source="QSF2PykfFOCDPN8S-CMc-17" target="QSF2PykfFOCDPN8S-CMc-30" edge="1">
                    <mxGeometry relative="1" as="geometry">
                        <Array as="points">
                            <mxPoint x="540" y="519"/>
                            <mxPoint x="540" y="720"/>
                            <mxPoint x="580" y="720"/>
                            <mxPoint x="580" y="675"/>
                        </Array>
                    </mxGeometry>
                </mxCell>
                <mxCell id="QSF2PykfFOCDPN8S-CMc-45" style="edgeStyle=orthogonalEdgeStyle;rounded=0;orthogonalLoop=1;jettySize=auto;html=1;entryX=0;entryY=0.5;entryDx=0;entryDy=0;labelBackgroundColor=#000066;strokeWidth=2;fontSize=14;fontColor=#6666FF;fillColor=#fff2cc;strokeColor=#d6b656;" parent="1" target="QSF2PykfFOCDPN8S-CMc-39" edge="1">
                    <mxGeometry relative="1" as="geometry">
                        <mxPoint x="490" y="520" as="sourcePoint"/>
                        <mxPoint x="610" y="685" as="targetPoint"/>
                        <Array as="points">
                            <mxPoint x="540" y="520"/>
                            <mxPoint x="540" y="720"/>
                            <mxPoint x="80" y="720"/>
                            <mxPoint x="80" y="877"/>
                        </Array>
                    </mxGeometry>
                </mxCell>
                <mxCell id="QSF2PykfFOCDPN8S-CMc-46" style="edgeStyle=orthogonalEdgeStyle;rounded=0;orthogonalLoop=1;jettySize=auto;html=1;exitX=1;exitY=0.5;exitDx=0;exitDy=0;entryX=0;entryY=0.5;entryDx=0;entryDy=0;labelBackgroundColor=#000066;strokeWidth=2;fontSize=14;fontColor=#6666FF;strokeColor=#FF8000;" parent="1" source="QSF2PykfFOCDPN8S-CMc-22" target="QSF2PykfFOCDPN8S-CMc-37" edge="1">
                    <mxGeometry relative="1" as="geometry">
                        <Array as="points">
                            <mxPoint x="790" y="519"/>
                            <mxPoint x="790" y="750"/>
                            <mxPoint x="60" y="750"/>
                            <mxPoint x="60" y="851"/>
                        </Array>
                    </mxGeometry>
                </mxCell>
                <mxCell id="QSF2PykfFOCDPN8S-CMc-47" value="&lt;font style=&quot;font-size: 24px&quot;&gt;Data Mapping Diagram&lt;/font&gt;" style="text;html=1;strokeColor=none;fillColor=none;align=center;verticalAlign=middle;whiteSpace=wrap;rounded=0;" parent="1" vertex="1">
                    <mxGeometry x="250" y="420" width="320" height="20" as="geometry"/>
                </mxCell>
                <mxCell id="QSF2PykfFOCDPN8S-CMc-48" value="" style="endArrow=none;html=1;labelBackgroundColor=#000066;strokeWidth=4;fontSize=14;fontColor=#6666FF;" parent="1" edge="1">
                    <mxGeometry width="50" height="50" relative="1" as="geometry">
                        <mxPoint x="10" y="380" as="sourcePoint"/>
                        <mxPoint x="840" y="380" as="targetPoint"/>
                        <Array as="points">
                            <mxPoint x="50" y="380"/>
                        </Array>
                    </mxGeometry>
                </mxCell>
            </root>
        </mxGraphModel>
    </diagram>
</mxfile>